<svg width="1920" height="1925" viewBox="0 0 1920 1925" fill="none" xmlns="http://www.w3.org/2000/svg">
<g clip-path="url(#clip0_8295_5819)">
<rect width="1920" height="1925" fill="url(#paint0_linear_8295_5819)"/>
<rect x="-0.496094" width="1920" height="1912.88" fill="url(#paint1_linear_8295_5819)"/>
<g opacity="0.6">
<circle cx="1.74417" cy="1.74417" r="1.74417" transform="matrix(1 0 0 -1 1892.84 456.08)" fill="#FFCE3C"/>
<circle cx="2.61626" cy="2.61626" r="2.61626" transform="matrix(1 0 0 -1 1769.71 455.156)" fill="#FFCE3C"/>
<circle cx="2.61626" cy="2.61626" r="2.61626" transform="matrix(1 0 0 -1 1669.83 453.88)" fill="#FFCE3C"/>
<circle cx="1.74417" cy="1.74417" r="1.74417" transform="matrix(1 0 0 -1 1821.99 397.785)" fill="#FFCE3C"/>
<circle cx="1.74417" cy="1.74417" r="1.74417" transform="matrix(1 0 0 -1 1565.11 479.439)" fill="#FFCE3C"/>
<circle cx="1.74417" cy="1.74417" r="1.74417" transform="matrix(1 0 0 -1 1497.23 398.809)" fill="#FFCE3C"/>
<circle cx="2.61626" cy="2.61626" r="2.61626" transform="matrix(1 0 0 -1 1285.61 485.433)" fill="#FFCE3C"/>
<circle cx="1.74417" cy="1.74417" r="1.74417" transform="matrix(1 0 0 -1 1193.82 466.643)" fill="#FFCE3C"/>
<circle cx="1.74417" cy="1.74417" r="1.74417" transform="matrix(1 0 0 -1 1589.14 394.712)" fill="#FFCE3C"/>
<circle cx="1.74417" cy="1.74417" r="1.74417" transform="matrix(1 0 0 -1 1451.23 458.852)" fill="#FFCE3C"/>
<circle cx="1.74417" cy="1.74417" r="1.74417" transform="matrix(1 0 0 -1 1395.25 522.066)" fill="#FFCE3C"/>
<circle cx="87.0086" cy="458.157" r="1.78442" transform="rotate(180 87.0086 458.157)" fill="#FFCE3C"/>
<circle cx="177.323" cy="461.841" r="2.67663" transform="rotate(180 177.323 461.841)" fill="#FFCE3C"/>
<circle cx="413.177" cy="408.124" r="2.67663" transform="rotate(180 413.177 408.124)" fill="#FFCE3C"/>
<circle cx="247.829" cy="408.124" r="1.78442" transform="rotate(180 247.829 408.124)" fill="#FFCE3C"/>
<circle cx="23.2625" cy="382.015" r="1.78442" transform="rotate(180 23.2625 382.015)" fill="#FFCE3C"/>
<circle cx="348.653" cy="462.254" r="1.78442" transform="rotate(180 348.653 462.254)" fill="#FFCE3C"/>
<circle cx="484.448" cy="478.41" r="1.78442" transform="rotate(180 484.448 478.41)" fill="#FFCE3C"/>
<circle cx="659.71" cy="401.978" r="2.67663" transform="rotate(180 659.71 401.978)" fill="#FFCE3C"/>
<circle cx="699.145" cy="485.433" r="1.78442" transform="rotate(180 699.145 485.433)" fill="#FFCE3C"/>
<circle cx="570.393" cy="430.83" r="1.78442" transform="rotate(180 570.393 430.83)" fill="#FFCE3C"/>
<circle cx="558.751" cy="523.85" r="1.78442" transform="rotate(180 558.751 523.85)" fill="#FFCE3C"/>
</g>
<g opacity="0.2">
<circle cx="23.4103" cy="635.289" r="2.04865" transform="rotate(-180 23.4103 635.289)" fill="#FFCE3C"/>
<circle cx="192.083" cy="633.493" r="3.07297" transform="rotate(-180 192.083 633.493)" fill="#FFCE3C"/>
<circle cx="329.88" cy="632.216" r="3.07297" transform="rotate(-180 329.88 632.216)" fill="#FFCE3C"/>
<circle cx="121.164" cy="576.994" r="2.04865" transform="rotate(-180 121.164 576.994)" fill="#FFCE3C"/>
<circle cx="475.547" cy="658.648" r="2.04865" transform="rotate(-180 475.547 658.648)" fill="#FFCE3C"/>
<circle cx="611.961" cy="655.794" r="2.04865" transform="rotate(-180 611.961 655.794)" fill="#FFCE3C"/>
<circle cx="859.95" cy="663.77" r="3.07297" transform="rotate(-180 859.95 663.77)" fill="#FFCE3C"/>
<circle cx="988.147" cy="645.852" r="2.04865" transform="rotate(-180 988.147 645.852)" fill="#FFCE3C"/>
<circle cx="442.404" cy="573.921" r="2.04865" transform="rotate(-180 442.404 573.921)" fill="#FFCE3C"/>
<circle cx="560.268" cy="596.627" r="2.04865" transform="rotate(-180 560.268 596.627)" fill="#FFCE3C"/>
<circle cx="709.897" cy="700.971" r="2.04865" transform="rotate(-180 709.897 700.971)" fill="#FFCE3C"/>
<circle cx="2.04865" cy="2.04865" r="2.04865" transform="matrix(1 0 0 -1 1786.86 623.954)" fill="#FFCE3C"/>
<circle cx="3.07297" cy="3.07297" r="3.07297" transform="matrix(1 0 0 -1 1666.79 628.663)" fill="#FFCE3C"/>
<circle cx="3.07297" cy="3.07297" r="3.07297" transform="matrix(1 0 0 -1 1355.92 574.945)" fill="#FFCE3C"/>
<circle cx="2.04865" cy="2.04865" r="2.04865" transform="matrix(1 0 0 -1 1574.88 573.921)" fill="#FFCE3C"/>
<circle cx="2.04865" cy="2.04865" r="2.04865" transform="matrix(1 0 0 -1 1870.88 548.076)" fill="#FFCE3C"/>
<circle cx="2.04865" cy="2.04865" r="2.04865" transform="matrix(1 0 0 -1 1441.99 628.051)" fill="#FFCE3C"/>
<circle cx="2.04865" cy="2.04865" r="2.04865" transform="matrix(1 0 0 -1 1263 644.207)" fill="#FFCE3C"/>
<circle cx="3.07297" cy="3.07297" r="3.07297" transform="matrix(1 0 0 -1 1030.97 568.799)" fill="#FFCE3C"/>
<circle cx="2.04865" cy="2.04865" r="2.04865" transform="matrix(1 0 0 -1 916.785 592.53)" fill="#FFCE3C"/>
<circle cx="2.04865" cy="2.04865" r="2.04865" transform="matrix(1 0 0 -1 1149.72 596.627)" fill="#FFCE3C"/>
<circle cx="2.04865" cy="2.04865" r="2.04865" transform="matrix(1 0 0 -1 1165.06 689.383)" fill="#FFCE3C"/>
</g>
<g opacity="0.1">
<circle cx="2.04865" cy="2.04865" r="2.04865" transform="matrix(-1 0 0 1 25.459 769.03)" fill="#FFCE3C"/>
<circle cx="3.07297" cy="3.07297" r="3.07297" transform="matrix(-1 0 0 1 195.156 769.802)" fill="#FFCE3C"/>
<circle cx="3.07297" cy="3.07297" r="3.07297" transform="matrix(-1 0 0 1 332.953 771.079)" fill="#FFCE3C"/>
<circle cx="2.04865" cy="2.04865" r="2.04865" transform="matrix(-1 0 0 1 123.213 827.325)" fill="#FFCE3C"/>
<circle cx="2.04865" cy="2.04865" r="2.04865" transform="matrix(-1 0 0 1 477.596 745.671)" fill="#FFCE3C"/>
<circle cx="2.04865" cy="2.04865" r="2.04865" transform="matrix(-1 0 0 1 614.01 748.525)" fill="#FFCE3C"/>
<circle cx="3.07297" cy="3.07297" r="3.07297" transform="matrix(-1 0 0 1 863.023 739.525)" fill="#FFCE3C"/>
<circle cx="2.04865" cy="2.04865" r="2.04865" transform="matrix(-1 0 0 1 990.195 758.467)" fill="#FFCE3C"/>
<circle cx="2.04865" cy="2.04865" r="2.04865" transform="matrix(-1 0 0 1 444.453 830.398)" fill="#FFCE3C"/>
<circle cx="2.04865" cy="2.04865" r="2.04865" transform="matrix(-1 0 0 1 562.316 807.692)" fill="#FFCE3C"/>
<circle cx="2.04865" cy="2.04865" r="2.04865" transform="matrix(-1 0 0 1 711.945 703.349)" fill="#FFCE3C"/>
<circle cx="1788.9" cy="784.463" r="2.04865" fill="#FFCE3C"/>
<circle cx="1669.86" cy="780.778" r="3.07297" fill="#FFCE3C"/>
<circle cx="1358.99" cy="834.495" r="3.07297" fill="#FFCE3C"/>
<circle cx="1576.93" cy="834.495" r="2.04865" fill="#FFCE3C"/>
<circle cx="1872.93" cy="860.34" r="2.04865" fill="#FFCE3C"/>
<circle cx="1444.04" cy="780.366" r="2.04865" fill="#FFCE3C"/>
<circle cx="1265.05" cy="764.209" r="2.04865" fill="#FFCE3C"/>
<circle cx="1034.04" cy="840.641" r="3.07297" fill="#FFCE3C"/>
<circle cx="918.834" cy="815.887" r="2.04865" fill="#FFCE3C"/>
<circle cx="1151.77" cy="811.789" r="2.04865" fill="#FFCE3C"/>
<circle cx="1167.11" cy="719.033" r="2.04865" fill="#FFCE3C"/>
</g>
<circle cx="2.04865" cy="2.04865" r="2.04865" transform="matrix(-1 0 0 1 25.6035 260.021)" fill="#FFCE3C"/>
<circle cx="3.07297" cy="3.07297" r="3.07297" transform="matrix(-1 0 0 1 195.301 260.793)" fill="#FFCE3C"/>
<circle cx="3.07297" cy="3.07297" r="3.07297" transform="matrix(-1 0 0 1 333.098 262.07)" fill="#FFCE3C"/>
<circle cx="2.04865" cy="2.04865" r="2.04865" transform="matrix(-1 0 0 1 123.357 318.316)" fill="#FFCE3C"/>
<circle cx="2.04865" cy="2.04865" r="2.04865" transform="matrix(-1 0 0 1 477.74 236.662)" fill="#FFCE3C"/>
<circle cx="2.04865" cy="2.04865" r="2.04865" transform="matrix(-1 0 0 1 614.154 239.516)" fill="#FFCE3C"/>
<circle cx="3.07297" cy="3.07297" r="3.07297" transform="matrix(-1 0 0 1 863.168 230.516)" fill="#FFCE3C"/>
<circle cx="2.04865" cy="2.04865" r="2.04865" transform="matrix(-1 0 0 1 990.34 249.458)" fill="#FFCE3C"/>
<circle cx="2.04865" cy="2.04865" r="2.04865" transform="matrix(-1 0 0 1 444.598 321.389)" fill="#FFCE3C"/>
<circle cx="2.04865" cy="2.04865" r="2.04865" transform="matrix(-1 0 0 1 562.461 298.683)" fill="#FFCE3C"/>
<circle cx="2.04865" cy="2.04865" r="2.04865" transform="matrix(-1 0 0 1 712.09 194.339)" fill="#FFCE3C"/>
<circle cx="1789.05" cy="275.454" r="2.04865" fill="#FFCE3C"/>
<circle cx="1670.01" cy="271.769" r="3.07297" fill="#FFCE3C"/>
<circle cx="1359.13" cy="325.486" r="3.07297" fill="#FFCE3C"/>
<circle cx="1577.08" cy="325.486" r="2.04865" fill="#FFCE3C"/>
<circle cx="1873.07" cy="351.331" r="2.04865" fill="#FFCE3C"/>
<circle cx="1444.18" cy="271.356" r="2.04865" fill="#FFCE3C"/>
<circle cx="1265.19" cy="255.2" r="2.04865" fill="#FFCE3C"/>
<circle cx="1034.18" cy="331.632" r="3.07297" fill="#FFCE3C"/>
<circle cx="918.978" cy="306.877" r="2.04865" fill="#FFCE3C"/>
<circle cx="1151.91" cy="302.78" r="2.04865" fill="#FFCE3C"/>
<circle cx="1167.26" cy="210.024" r="2.04865" fill="#FFCE3C"/>
<circle cx="909.558" cy="19.6197" r="2.04865" fill="#FFCE3C"/>
<circle cx="725.507" cy="31.426" r="3.07297" fill="#FFCE3C"/>
<circle cx="576.915" cy="45.0969" r="3.07297" fill="#FFCE3C"/>
<circle cx="608.998" cy="79.273" r="2.04865" fill="#FFCE3C"/>
<circle cx="950.082" cy="115.313" r="2.04865" fill="#FFCE3C"/>
<circle cx="521.191" cy="34.5333" r="2.04865" fill="#FFCE3C"/>
<circle cx="342.205" cy="18.3765" r="2.04865" fill="#FFCE3C"/>
<circle cx="124.384" cy="23.9692" r="3.07297" fill="#FFCE3C"/>
<circle cx="11.2498" cy="116.993" r="2.04865" fill="#FFCE3C"/>
<circle cx="480.668" cy="94.1863" r="2.04865" fill="#FFCE3C"/>
<circle cx="203.744" cy="59.3887" r="2.04865" fill="#FFCE3C"/>
<circle cx="1916.96" cy="194.34" r="3.07297" fill="#FFCE3C"/>
<circle cx="1784.95" cy="111.661" r="2.04865" fill="#FFCE3C"/>
<circle cx="1600.9" cy="123.467" r="3.07297" fill="#FFCE3C"/>
<circle cx="1495.58" cy="165.579" r="3.07297" fill="#FFCE3C"/>
<circle cx="1704.49" cy="180.853" r="2.04865" fill="#FFCE3C"/>
<circle cx="1396.58" cy="126.574" r="2.04865" fill="#FFCE3C"/>
<circle cx="999.776" cy="116.011" r="3.07297" fill="#FFCE3C"/>
<circle cx="841.412" cy="120.36" r="2.04865" fill="#FFCE3C"/>
<circle cx="1263.73" cy="165.579" r="2.04865" fill="#FFCE3C"/>
<circle cx="1079.14" cy="151.43" r="2.04865" fill="#FFCE3C"/>
<circle cx="1119.66" cy="65.2418" r="2.04865" fill="#FFCE3C"/>
<circle cx="3.07297" cy="3.07297" r="3.07297" transform="matrix(-1 0 0 1 184.283 134.03)" fill="#FFCE3C"/>
<circle cx="2.04865" cy="2.04865" r="2.04865" transform="matrix(-1 0 0 1 299.77 182.902)" fill="#FFCE3C"/>
<circle cx="2.04865" cy="2.04865" r="2.04865" transform="matrix(-1 0 0 1 387.572 138.161)" fill="#FFCE3C"/>
<circle cx="2.04865" cy="2.04865" r="2.04865" transform="matrix(-1 0 0 1 566.561 122.005)" fill="#FFCE3C"/>
<circle cx="2.04865" cy="2.04865" r="2.04865" transform="matrix(-1 0 0 1 942.746 131.948)" fill="#FFCE3C"/>
<circle cx="2.04865" cy="2.04865" r="2.04865" transform="matrix(-1 0 0 1 716.148 139.056)" fill="#FFCE3C"/>
<circle cx="2.04865" cy="2.04865" r="2.04865" transform="matrix(-1 0 0 1 664.496 76.8289)" fill="#FFCE3C"/>
<circle cx="965.215" cy="60.315" r="2.04865" transform="rotate(180 965.215 60.315)" fill="#FFCE3C"/>
<circle cx="1149.27" cy="48.5089" r="3.07297" transform="rotate(180 1149.27 48.5089)" fill="#FFCE3C"/>
<circle cx="1297.86" cy="34.838" r="3.07297" transform="rotate(180 1297.86 34.838)" fill="#FFCE3C"/>
<circle cx="1265.78" cy="0.661922" r="2.04865" transform="rotate(180 1265.78 0.661922)" fill="#FFCE3C"/>
<circle cx="1353.58" cy="45.4019" r="2.04865" transform="rotate(180 1353.58 45.4019)" fill="#FFCE3C"/>
<circle cx="1532.57" cy="61.5579" r="2.04865" transform="rotate(180 1532.57 61.5579)" fill="#FFCE3C"/>
<circle cx="1750.39" cy="55.9655" r="3.07297" transform="rotate(180 1750.39 55.9655)" fill="#FFCE3C"/>
<circle cx="1908.76" cy="51.6158" r="2.04865" transform="rotate(180 1908.76 51.6158)" fill="#FFCE3C"/>
<circle cx="1671.03" cy="20.5462" r="2.04865" transform="rotate(180 1671.03 20.5462)" fill="#FFCE3C"/>
<circle cx="956.18" cy="32.4844" r="106.571" fill="#FFCE3C"/>
<path d="M1010.11 -59.4497C1041.61 -40.9328 1062.75 -6.69371 1062.75 32.4849C1062.75 91.3419 1015.04 139.055 956.181 139.055C928.203 139.055 902.744 128.273 883.73 110.639C899.551 119.94 917.984 125.276 937.663 125.276C996.52 125.276 1044.23 77.5626 1044.23 18.7056C1044.23 -12.1746 1031.1 -39.9862 1010.11 -59.4497Z" fill="#F09529"/>
<path fill-rule="evenodd" clip-rule="evenodd" d="M919.537 74.0856C927.239 74.3299 933.288 80.5473 935.117 88.0335C936.606 94.1257 931.826 99.361 926.535 102.729C922.315 105.416 917.246 104.732 912.972 102.131C906.801 98.3761 898.939 93.9721 900.585 86.9381C902.508 78.7215 911.102 73.8181 919.537 74.0856Z" fill="#F09529"/>
<path fill-rule="evenodd" clip-rule="evenodd" d="M982.366 74.7558C970.415 74.3767 961.03 64.7299 958.192 53.1146C955.883 43.6621 963.299 35.539 971.507 30.3134C978.056 26.1445 985.92 27.2051 992.552 31.2406C1002.13 37.0672 1014.33 43.9003 1011.77 54.8141C1008.79 67.5629 995.453 75.1709 982.366 74.7558Z" fill="#F09529"/>
<path fill-rule="evenodd" clip-rule="evenodd" d="M890.42 1.93949C883.894 2.14647 878.77 7.41352 877.221 13.7554C875.96 18.9163 880.009 23.3515 884.49 26.2046C888.066 28.4808 892.36 27.9017 895.981 25.6984C901.209 22.5171 907.869 18.7863 906.474 12.8274C904.845 5.86676 897.565 1.71284 890.42 1.93949Z" fill="#F09529"/>
<path fill-rule="evenodd" clip-rule="evenodd" d="M1015.88 -19.3557C1020.75 -19.2959 1024.26 -15.2361 1025.79 -10.6103C1027.35 -5.8957 1027.01 -0.501619 1023.14 2.59909C1018.69 6.15725 1012.28 7.25482 1007.72 3.83592C1003.33 0.537596 1003.36 -5.67748 1005.19 -10.8633C1006.86 -15.6104 1010.85 -19.4175 1015.88 -19.3557Z" fill="#F09529"/>
<g clip-path="url(#clip1_8295_5819)">
<path d="M601.15 1681.28C601.22 1681.48 702.787 1859.24 705.977 1861.99C707.837 1863.59 1155.36 1888.98 1160.03 1886.56C1168.52 1882.16 1459.47 1829.45 1471.25 1827.41C1451.74 1822.58 1430.46 1823.88 1412.57 1814.69C1393.63 1804.97 1381.05 1784.67 1360.96 1777.65C1352.13 1774.57 1342.61 1774.35 1333.36 1773.02C1324.11 1771.69 1314.49 1768.89 1308.18 1761.98C1294.98 1774.85 1274.71 1777.36 1256.41 1775.22C1238.11 1773.08 1220.4 1767.04 1202.04 1765.52C1190.32 1764.55 1177.57 1765.16 1168 1758.31C1162.95 1754.71 1156.41 1745.44 1149.29 1746.94C1142.64 1748.35 1134.54 1754.88 1128.19 1757.77C1111.24 1765.48 1088.68 1774.03 1061.1 1780.7C1049.7 1783.46 1037.44 1785.89 1024.36 1787.82C935.137 1800.95 890.65 1782.21 890.65 1782.21L850.29 1754.09L828.347 1765.09C828.347 1765.09 800.583 1739.77 761.803 1728.78C724.127 1718.09 694.29 1719.94 608.743 1684.46C608.12 1684.2 607.5 1683.94 606.87 1683.68C606.59 1683.56 606.32 1683.45 606.04 1683.33C605.69 1683.18 605.333 1683.04 604.973 1682.89C604.83 1682.83 604.687 1682.76 604.543 1682.71C604.243 1682.58 603.943 1682.45 603.643 1682.32C603.45 1682.24 603.257 1682.16 603.063 1682.08C602.42 1681.81 601.777 1681.54 601.14 1681.28L601.15 1681.28Z" fill="#1B1525"/>
<path d="M1104.34 1941.74H967.908L950.016 1997.65L1786.38 2023.32L2696.06 1906.12L2268.19 1718.24L2030.08 1742.42L1979.85 1718.24L1940.79 1742.42L1871.96 1733.12L1838.47 1658.71L1445.95 1827.99H1327.99L1104.34 1941.74Z" fill="#15111D"/>
<path d="M967.047 1848.57L1132.61 1925.02H-0.297729V1414.1L66.6724 1436.48L191.311 1378.67L395.941 1518.52H490.816L606.153 1567L674.983 1621.08V1673.29L887.055 1757.2L916.819 1781.44H952.164L967.047 1848.57Z" fill="#15111D"/>
<path d="M1836.77 1659.88C1836.77 1659.88 1825.72 1676.92 1817.04 1679.8C1808.36 1682.67 1804.03 1715.13 1792.81 1718.48C1792.81 1718.48 1773.65 1730.18 1771.08 1737.3C1768.51 1744.4 1766.42 1755.66 1769.26 1757.16C1772.11 1758.67 1756.29 1754.51 1751.74 1750.23C1747.17 1745.96 1740.38 1746.4 1730.04 1750.23C1719.8 1754.02 1805.18 1807.58 1806.7 1808.54C1806.19 1808.35 1794.39 1807.84 1779.1 1806.83C1771.01 1806.3 1761.95 1805.63 1753.09 1804.78C1732.24 1802.82 1712.39 1799.95 1708.5 1795.83C1699.78 1786.56 1649.26 1786.94 1649.26 1786.94L1660.65 1810.45L1634.98 1808.55L1464.32 1846.58L1464.33 1846.57C1474.36 1842.38 1484.35 1838.43 1494.33 1835.24C1535.18 1822.12 1576.03 1809.01 1616.87 1795.83H1616.9C1616.9 1795.83 1616.9 1795.81 1616.91 1795.81L1644.8 1774.34C1644.8 1774.34 1697.62 1754.64 1698.69 1754.19C1710.71 1749.05 1753.95 1724.63 1769.6 1713.56C1770.09 1713.21 1770.57 1712.89 1771.06 1712.55C1771.07 1712.55 1773.63 1710.73 1774.86 1709.85C1776.48 1708.66 1778.07 1707.46 1779.6 1706.27C1780.72 1705.39 1781.84 1704.51 1782.91 1703.64C1785.88 1701.18 1788.65 1698.7 1791.2 1696.2C1791.52 1695.89 1791.83 1695.57 1792.13 1695.26C1792.44 1694.95 1792.74 1694.65 1793.03 1694.34C1793.34 1694.03 1793.63 1693.72 1793.91 1693.4C1794.21 1693.09 1794.5 1692.78 1794.78 1692.47C1796.48 1690.61 1798.05 1688.73 1799.44 1686.84C1799.67 1686.53 1799.9 1686.22 1800.11 1685.91C1800.79 1684.96 1801.44 1684 1802.04 1683.05C1802.04 1683.05 1827.11 1666.06 1836.75 1659.88L1836.77 1659.88Z" fill="#08070A"/>
<path d="M50.9608 1469.52L-0.169189 1464.09V1542.07C2.65076 1541.53 5.46075 1540.84 8.24078 1540.04C13.5608 1538.52 18.7407 1536.56 23.6807 1534.31C45.4207 1524.41 64.5408 1509.4 86.3308 1499.64C92.3708 1496.93 98.6008 1494.66 104.961 1492.81C125.971 1486.71 148.361 1485.35 169.941 1489.02C175.611 1489.97 181.501 1491.43 185.761 1495.32C190.001 1499.2 191.891 1506.24 188.421 1510.84C201.931 1507.14 215.441 1503.45 228.951 1499.74C230.841 1499.23 233.051 1498.76 234.611 1499.96C236.061 1501.07 236.311 1503.12 236.321 1504.94C236.381 1511.83 234.861 1518.52 232.421 1524.95C229.791 1531.88 226.111 1538.53 222.221 1544.82C209.151 1566.02 193.161 1585.4 174.871 1602.27C164.001 1612.31 150.951 1620.97 141.111 1632.01C133.901 1640.1 133.311 1650.18 127.331 1659.12C126.151 1660.89 123.301 1663.94 119.631 1667.77H119.621C115.751 1671.82 110.941 1676.73 106.191 1681.91C93.2008 1696.08 80.5908 1712.29 88.3308 1718.42C91.3808 1720.83 95.6207 1720.89 99.5007 1720.63C101.811 1720.47 104.111 1720.24 106.411 1719.95C115.061 1718.87 123.651 1717.04 132.261 1715.75C139.681 1714.66 147.101 1713.97 154.581 1714.51C163.011 1715.11 171.271 1717.28 179.691 1718.01C181.661 1718.18 183.751 1718.25 185.501 1717.33C187.041 1716.5 188.111 1715.02 189.111 1713.59C193.301 1707.63 197.121 1701.1 201.561 1695.37C205.901 1689.76 213.771 1688.79 220.751 1687.61C243.571 1683.74 265.171 1672.93 281.981 1656.98C284.871 1654.23 287.741 1651.25 291.441 1649.78C294.411 1648.6 297.681 1648.48 300.881 1648.5C310.751 1648.58 320.611 1649.89 330.161 1652.42C331.521 1652.78 332.951 1653.21 333.881 1654.27C335.041 1655.59 335.101 1657.52 335.111 1659.28C335.141 1670.05 335.181 1680.81 335.221 1691.58C345.501 1693.72 355.781 1695.88 366.071 1698.02C370.451 1698.94 374.911 1699.86 379.361 1699.44C398.931 1697.64 418.811 1680.49 435.371 1671.87C457.801 1660.21 487.241 1672.77 509.491 1660.78C513.751 1658.48 519.661 1655.58 522.681 1659.37C524.001 1661.02 524.031 1663.31 524.001 1665.42C523.701 1687.58 523.391 1709.73 523.091 1731.88C522.941 1742.19 522.851 1752.78 526.431 1762.45C529.991 1772.12 538.111 1780.81 548.331 1781.95C548.441 1785.53 548.551 1789.13 548.661 1792.72C561.791 1790.3 574.971 1788.52 588.081 1786.18C594.631 1785.01 600.971 1783.8 605.771 1783.65C606.441 1783.63 607.071 1783.63 607.681 1783.65C611.721 1783.81 614.281 1785.04 614.311 1788.22C614.421 1801.1 676.731 1750.73 684.101 1742.81C686.971 1739.72 709.201 1745.92 735.271 1754.94C754.621 1761.63 776.091 1769.85 793.371 1776.96C796.831 1778.4 800.131 1779.79 803.221 1781.1C816.901 1786.98 826.261 1791.53 826.741 1792.9C828.651 1798.16 831.701 1807.83 846.421 1816.09C849.151 1817.62 851.441 1820.99 853.351 1825.49C857.181 1834.49 859.491 1847.97 860.831 1859.96C862.411 1874.01 862.651 1886.02 862.411 1886.45L877.981 1868.73L903.111 1840.12L916.451 1855.55C916.451 1855.55 924.671 1851.74 930.781 1843.82C933.541 1840.22 939.751 1850.56 945.721 1862.96L929.811 1825.66H907.861V1825.65L900.551 1812.77C900.551 1812.77 662.111 1710.85 662.111 1710.84C660.651 1707.21 660.651 1680.42 660.651 1680.42L620.361 1653.22L601.291 1626.94L597.631 1621.88L593.371 1615.99H593.361L485.941 1564.76L374.331 1560.75L286.371 1485.8L282.021 1482.09L183.261 1428.18L134.281 1443.49L50.9608 1469.52Z" fill="#08070A"/>
</g>
<g clip-path="url(#clip2_8295_5819)">
<path d="M2153.53 1890.36H2153.54V1992.07H882.117V1910.48C882.117 1879 915.014 1853.49 955.583 1853.49C962.053 1853.49 968.333 1854.14 974.313 1855.36C985.205 1831.12 1014.91 1813.74 1049.87 1813.74C1077.64 1813.74 1102.09 1824.7 1116.44 1841.36C1121.75 1838.67 1128.09 1837.09 1134.92 1837.09C1148.68 1837.09 1160.51 1843.46 1165.79 1852.61C1186.43 1844.81 1246.26 1836.99 1248.75 1865.98C1250.77 1865.71 1252.85 1865.57 1254.97 1865.57C1271.91 1865.57 1286.19 1874.41 1290.54 1886.48H1291.93V1888.31C1298.58 1886.12 1305.9 1884.91 1313.58 1884.91C1321.89 1884.91 1329.78 1886.32 1336.85 1888.87C1343.59 1880.59 1355.48 1875.09 1369.01 1875.09C1389.25 1875.09 1405.8 1887.36 1406.97 1902.83C1410.12 1901.78 1413.6 1901.21 1417.23 1901.21C1431.75 1901.21 1443.51 1910.35 1443.51 1921.62C1443.51 1922.42 1443.46 1923.21 1443.33 1923.99C1452.5 1919.28 1463.51 1916.54 1475.33 1916.54C1489.74 1916.54 1502.9 1920.61 1513.05 1927.34C1514.63 1908.56 1533.5 1892.86 1558.45 1890.94C1565.47 1890.4 1572.29 1891 1578.62 1892.55C1578.43 1891.67 1578.22 1890.79 1578.1 1889.88C1574.93 1865.2 1598.15 1843.2 1629.97 1840.75C1655.65 1838.76 1679.05 1850.13 1688.81 1867.55C1692.94 1865.95 1697.51 1864.86 1702.4 1864.48C1706.85 1864.14 1711.2 1864.4 1715.32 1865.16C1722.84 1854.41 1737.51 1847.11 1754.39 1847.11C1768.27 1847.11 1780.68 1852.06 1788.82 1859.79C1795.19 1835.25 1823.13 1816.76 1856.67 1816.76C1870.75 1816.76 1883.87 1820.02 1894.79 1825.64C1894.64 1824.71 1894.58 1823.77 1894.58 1822.81C1894.58 1809.39 1908.59 1798.5 1925.89 1798.5C1930.22 1798.5 1934.36 1799.17 1938.12 1800.43C1939.51 1782 1959.23 1767.38 1983.34 1767.38C1999.47 1767.38 2013.64 1773.92 2021.66 1783.8C2030.09 1780.76 2039.49 1779.08 2049.39 1779.08C2085.88 1779.08 2115.46 1802.01 2115.46 1830.32C2115.46 1837.17 2113.72 1843.7 2110.56 1849.66C2135 1852.97 2153.54 1869.51 2153.54 1889.41C2153.54 1889.73 2153.54 1890.05 2153.53 1890.36Z" fill="#251D32"/>
<path d="M-28.1039 1881.44H-28.1155V1978.13H909.416V1933.74C909.416 1903.82 885.159 1879.56 855.244 1879.56C850.473 1879.56 845.842 1880.19 841.432 1881.35C829.65 1847.54 757.123 1837.35 736.628 1868.04C732.714 1865.48 728.036 1863.98 723.003 1863.98C712.854 1863.98 704.134 1870.03 700.238 1878.73C680.609 1841.78 619.503 1837.58 608.248 1877.74H607.227V1879.49C602.322 1877.4 596.927 1876.26 591.264 1876.26C585.134 1876.26 579.318 1877.6 574.104 1880.02C569.135 1872.14 560.369 1866.92 550.389 1866.92C535.464 1866.92 523.262 1878.58 522.399 1893.29C520.072 1892.29 517.511 1891.75 514.828 1891.75C504.126 1891.75 495.453 1900.44 495.453 1911.15C495.453 1911.92 495.488 1912.67 495.587 1913.41C488.821 1908.93 480.702 1906.33 471.988 1906.33C461.367 1906.33 451.662 1910.19 444.179 1916.59C443.012 1898.73 429.096 1883.81 410.7 1881.98C405.521 1881.47 400.493 1882.05 395.821 1883.52C395.961 1882.68 396.119 1881.84 396.206 1880.98C398.545 1857.52 381.421 1836.61 357.957 1834.27C339.024 1832.38 321.766 1843.19 314.574 1859.76C311.524 1858.23 308.159 1857.19 304.554 1856.83C301.27 1856.51 298.062 1856.75 295.024 1857.47C289.483 1847.26 278.664 1840.32 266.217 1840.32C255.981 1840.32 246.83 1845.02 240.828 1852.37C236.127 1829.04 193.509 1828.27 168.779 1828.27C158.397 1828.27 148.721 1831.36 140.666 1836.71C140.777 1835.83 140.823 1834.93 140.823 1834.01C140.823 1821.26 130.494 1810.9 117.732 1810.9C114.542 1810.9 111.492 1811.54 108.715 1812.73C107.689 1795.21 93.1483 1781.31 75.3708 1781.31C63.4783 1781.31 53.0322 1787.54 47.1122 1796.93C40.9006 1794.04 33.9715 1792.44 26.6692 1792.44C-0.242065 1792.44 -22.0499 1814.25 -22.0499 1841.15C-22.0499 1847.67 -20.7667 1853.88 -18.4395 1859.54C-36.462 1862.69 -28.1155 1861.62 -28.1155 1880.54C-28.1155 1880.84 -28.1155 1881.14 -28.1039 1881.44Z" fill="#251D32"/>
</g>
<path fill-rule="evenodd" clip-rule="evenodd" d="M1435.86 384.811C1456.66 379.677 1513.64 375.105 1524.26 374.512C1535.54 364.47 1546.79 358.219 1555.49 358.054C1563.84 357.892 1568.37 363.328 1569.08 372.392C1573.62 372.221 1578.18 372.057 1582.82 371.895C1599.81 356.001 1617.02 345.956 1630.13 345.683C1638.83 345.518 1644.6 349.665 1647.41 357.028C1661.71 346.69 1675.4 340.584 1686.6 340.337C1699.62 340.074 1707.22 347.811 1709.37 360.978C1714.85 357.707 1720.01 355.839 1724.43 355.759C1732.36 355.605 1736.4 361.222 1736.47 370.415C1784.5 371.212 1827.3 373.223 1861.47 376.195L1435.86 384.811Z" fill="#322F47"/>
<path fill-rule="evenodd" clip-rule="evenodd" d="M530.814 1080.17C510.018 1075.03 453.037 1070.46 442.41 1069.87C431.133 1059.82 419.885 1053.57 411.18 1053.41C402.838 1053.25 398.309 1058.68 397.596 1067.75C393.052 1067.58 388.489 1067.41 383.858 1067.25C366.865 1051.36 349.658 1041.31 336.546 1041.04C327.84 1040.87 322.07 1045.02 319.264 1052.38C304.96 1042.04 291.276 1035.94 280.074 1035.69C267.056 1035.43 259.453 1043.17 257.299 1056.33C251.826 1053.06 246.662 1051.19 242.242 1051.11C234.31 1050.96 230.277 1056.58 230.2 1065.77C182.176 1066.57 139.371 1068.58 105.199 1071.55L530.814 1080.17Z" fill="#191423"/>
</g>
<defs>
<linearGradient id="paint0_linear_8295_5819" x1="960" y1="0" x2="960" y2="1564.56" gradientUnits="userSpaceOnUse">
<stop offset="0.45" stop-color="#1A1423"/>
<stop offset="0.704638" stop-color="#3B3955"/>
<stop offset="1" stop-color="#945D45"/>
</linearGradient>
<linearGradient id="paint1_linear_8295_5819" x1="959.504" y1="0" x2="959.504" y2="1554.71" gradientUnits="userSpaceOnUse">
<stop offset="0.45" stop-color="#1A1423"/>
<stop offset="0.704638" stop-color="#3B3955"/>
<stop offset="1" stop-color="#945D45"/>
</linearGradient>
<clipPath id="clip0_8295_5819">
<rect width="1920" height="1925" fill="white"/>
</clipPath>
<clipPath id="clip1_8295_5819">
<rect width="1920" height="546" fill="white" transform="translate(-0.496094 1379.01)"/>
</clipPath>
<clipPath id="clip2_8295_5819">
<rect width="1920" height="203" fill="white" transform="translate(0.148438 1722.01)"/>
</clipPath>
</defs>
</svg>
